<svg id="Layer_1" data-name="Layer 1" xmlns="http://www.w3.org/2000/svg" viewBox="0 0 327.626 154.899"><title>text</title><g id="hgrp"><polyline id="hpath" points="67.769 1.399 50.769 40.399 25.769 95.399 25.769 126.399 46.769 102.399 67.769 95.399 67.769 138.399 104.769 93.399 112.769 123.399 129.769 102.399 135.769 93.399 118.769 93.399 94.769 117.399 112.769 132.399 143.769 117.399 182.769 84.399 194.769 79.399 222.769 49.399 222.769 16.399 199.769 41.399 175.769 122.399 189.769 130.399 218.769 111.399 233.769 102.399 255.769 79.399 275.769 41.399 275.769 22.399 252.769 45.399 228.769 79.399 218.769 121.399 242.769 130.399 266.769 113.399 275.769 138.399 297.769 132.399 312.769 111.399 305.769 93.399 275.769 102.399 269.769 129.399 292.769 151.399 297.769 151.399" style="fill:none;stroke:#000;stroke-miterlimit:10;stroke-width:7px"/></g><path d="M518.693,325.486v-.717a10.068,10.068,0,0,1,.2-2.253,8.9,8.9,0,0,1-.586-2.971,27.982,27.982,0,0,1,.976-2.868l.879-3.176a16.931,16.931,0,0,1,.781-1.946,12.587,12.587,0,0,1-.585-1.844,5.916,5.916,0,0,1,1.267-3.892,12.863,12.863,0,0,0,2.149-4.3l1.951-6.248,3.22-8.195a11.9,11.9,0,0,1,.926-1.639q.828-1.329,1.367-2.305t1.514-2.817l.977-.2a1.206,1.206,0,0,0,.39-.819,13.014,13.014,0,0,0-.39-1.64l3.418-5.941,2.05-4.4a4.964,4.964,0,0,1,2.149-2.254q1.953-3.787,3.418-4.609a15.259,15.259,0,0,1,2.148-4.2l1.856-.205a9.273,9.273,0,0,1,.976-2.151l.2-2.049c0,.411.161.292.488-.358s.813-1.86,1.465-3.636l2.636-3.176.782-1.434q.487-.716,1.562-2.765a5.22,5.22,0,0,0,2.442-2.254l2.05-1.741q-.2-1.127,2.344-5.019a12.515,12.515,0,0,0,3.027-1.844l1.368-.41q0-3.583,2.441-4.917l1.172-.819a9.408,9.408,0,0,1,1.758-.819l.683-.206a8.32,8.32,0,0,1,2.735-.409,9.229,9.229,0,0,1,6.543,2.817,8.671,8.671,0,0,1,2.929,6.4,4.427,4.427,0,0,1-1.465,2.97l-.39.82q-1.37,5.634-1.953,5.633a1.919,1.919,0,0,0-1.074.615,20.458,20.458,0,0,1-.391,3.79q-1.758.308-1.758,4.61a8.328,8.328,0,0,1-1.416,2.1,10.608,10.608,0,0,0-1.9,4.1q-.684,2.612-1.465,2.612h-1.074l.293,1.536a4.1,4.1,0,0,1-1.319,2.817,5.821,5.821,0,0,0-1.611,2.92,8.2,8.2,0,0,1-2.344,3.687l-.976,1.639a13.883,13.883,0,0,1-1.563,2.151,9.334,9.334,0,0,0-1.66,3.483l-2.539,4.917q-2.637,5.019-4,4.813a37.263,37.263,0,0,1-1.172,4.61,2.733,2.733,0,0,1-1.367,1.127,3.491,3.491,0,0,0-1.66,1.792,5.742,5.742,0,0,1-1.27,1.895l-1.758,3.79a4.319,4.319,0,0,0-2.246,2.663q-1.563.411-1.953,2.766a6.746,6.746,0,0,0-.976,1.844l-3.418,3.585a6.161,6.161,0,0,0-2.832,4.456q-.2,2.511-2.539,2.51a12.8,12.8,0,0,1-4.883-1.537h-.195a10.032,10.032,0,0,1-1.368,3.175l.391,2.766q0,.515-1.563,6.453a5.923,5.923,0,0,1,.782,2.151l-.2,2.254.489,2.765q.488,3.381,2.343,3.381l2.343.409a16.2,16.2,0,0,0,2.44-1.536l3.61-2.049c.129,0,.2.069.2.205a4.3,4.3,0,0,0,1.561.41q.975,0,.976-1.639v-1.331a2.345,2.345,0,0,1,1.415-1.23,3.114,3.114,0,0,0,1.514-.922c.454-.476.813-.717,1.072-.717h.977q1.462,0,1.463-3.585a4.243,4.243,0,0,0,.977-.819h1.17q.781,0,1.708-2A11.743,11.743,0,0,1,555.1,321.7a6.663,6.663,0,0,0,2.44-.614q3.122-5.94,4.782-5.941h.586a5.374,5.374,0,0,0,1.8-2.92,1.969,1.969,0,0,1,.975-1.69,6.656,6.656,0,0,0,1.514-1.024q.681-.615.879-.615,1.463,0,1.463,1.127l-.293,2.868.684,3.073a3.922,3.922,0,0,1-.83,1.588,4.433,4.433,0,0,0-.829,2.612q0,2.971-.977,3.175a2.456,2.456,0,0,0-1.609,1.383,6.183,6.183,0,0,1-2.1,2.151,6.14,6.14,0,0,0-2.243,2.817l-1.66.41-.975.614q-1.171,3.177-2.49,3.893t-3.269,4.3c-.195,0-.293.069-.293.2l-1.561-.2a3.834,3.834,0,0,1-1.758,1.946,2.918,2.918,0,0,0-1.463,1.178,4.468,4.468,0,0,1-2.1,1.485,3.408,3.408,0,0,0-1.9,1.434,1.474,1.474,0,0,1-1.172.922,2.58,2.58,0,0,0-1.463.768,1.874,1.874,0,0,1-1.17.666c-.131,0-.586-.067-1.367-.2h-.389a5.074,5.074,0,0,1-2.733,1.23,3.29,3.29,0,0,0-1.854.409,4.567,4.567,0,0,0-1.807-.614,9.549,9.549,0,0,1-2.782-1.025,12.774,12.774,0,0,1-2.049.41q-1.659,0-4.2-3.431a11.321,11.321,0,0,1-2.537-6.71,12.982,12.982,0,0,0-1.124-1.587,5.234,5.234,0,0,1-1.123-3.227V331.53l.2-1.23v-1.946l.2-.614q1.466-.2,1.465-.41Zm19.817-27.144,2.051-1.23a9.723,9.723,0,0,1,2.539-3.943q2.146-2.305,3.027-2.305h.781a3.78,3.78,0,0,1,.293-1.434,5.27,5.27,0,0,0,.293-1.946q0-.615,2.637-3.38l.781-1.844q.879-2.662,4.395-4.4,1.366-2.97,2.05-2.97l.782-.2a6.164,6.164,0,0,1,1.562-2.766l.391-.614v-1.639a7.516,7.516,0,0,1,1.318-1.69,11.5,11.5,0,0,0,1.9-2.766,4.819,4.819,0,0,1,1.612-2,3.984,3.984,0,0,0,1.416-2.561l1.562-.2a4.829,4.829,0,0,1,.2-1.741l.195-1.025q.488-1.228,3.418-6.453l1.562-3.79a2.414,2.414,0,0,1,.83-1.485,3.5,3.5,0,0,0,.831-2.51l.781-3.38q0-2.355-.781-2.356a7.634,7.634,0,0,1-1.807,1.025q-.831.306-1.611,3.687-2.931.719-3.37,2.919a6.226,6.226,0,0,1-2.392,3.739l-.684,1.229a4.171,4.171,0,0,1-1.855,2.356,11.426,11.426,0,0,0-3.125,4.2q-4.885,7.068-5.371,7.58l-.977,1.229-1.465-.2a17.934,17.934,0,0,1,.391,1.844,1.639,1.639,0,0,1-.586,1.178,3.535,3.535,0,0,0-.879,1.383,6.773,6.773,0,0,1-1.172,1.9,10.5,10.5,0,0,0-1.611,3.482,6.258,6.258,0,0,1-1.318,2.817l-1.368-.2q-1.269.822-1.269,1.639l.293,1.434a1.563,1.563,0,0,1-.537.973,5.751,5.751,0,0,0-1.026,2.2,25.94,25.94,0,0,1-2.441,4.968,32.138,32.138,0,0,0-3.076,7.067q-1.123,3.741-2.2,4.763a.768.768,0,0,0,.586.205Q537.337,301.107,538.51,298.342Z" transform="translate(-299.731 -206.101)" style="fill:none;stroke:#000;stroke-miterlimit:10;stroke-width:7px"/><path d="M613.2,339.109l-4.594,4.2a1.114,1.114,0,0,0-.782-.41q-.977,0-2.394,1.844t-2,1.844l-.977-.2a12.885,12.885,0,0,1-3.518,2.254,13.438,13.438,0,0,0-2.59,1.127,7.119,7.119,0,0,1-2.737.922,3.132,3.132,0,0,0-2,.87q-.783.768-3.81.768l-1.564-.2a5.352,5.352,0,0,1-1.66.614,2.477,2.477,0,0,1-1.664-.871,3.147,3.147,0,0,0-1.9-.973,3.331,3.331,0,0,1-2.1-1.434,7.369,7.369,0,0,0-2-1.844,4.131,4.131,0,0,1-1.516-1.434l-1.367-1.229a11.968,11.968,0,0,1-3.225-4.507,13.055,13.055,0,0,1-1.563-5.121v-.41l.2-1.946-.2-2.254a6.8,6.8,0,0,0,.977-1.741v-3.278l2.344-8.194q.193-.512-.782-1.332a4.051,4.051,0,0,1-1.959,1.844,1.984,1.984,0,0,0-1.326,1.434c-.229.752-.606,1.126-1.131,1.126l-1.181-.409a10.936,10.936,0,0,0-.886,2.1,2.442,2.442,0,0,1-2.361,1.894q-1.772,0-1.771-1.433l.2-1.845-.59-2.56a8.333,8.333,0,0,1,1.565-3.227q1.566-2.406,2.886-2.765a3.853,3.853,0,0,0,2.251-1.947,14.787,14.787,0,0,1,4.059-3.841,4.933,4.933,0,0,0,3.033-2.663,10.9,10.9,0,0,1,3.569-1.844,6.9,6.9,0,0,0,3.326-2.1q1.126-1.383,6.653-4.3t8.071-2.919a7.274,7.274,0,0,0,2.152-.461q1.37-.462,2.544-.819A11,11,0,0,0,603.3,290.3a4.341,4.341,0,0,1,2.055-.768l2.837,1.024a23.011,23.011,0,0,1,3.816,1.332,9.236,9.236,0,0,0,2,.87,23.088,23.088,0,0,1,3.717,1.793q1.906,1.128,1.907,4.2a19.848,19.848,0,0,0-1.663,2.766q0,.411,2.25,1.229.783,1.538,2.349,4l1.074,3.585.2,8.4-.2.819q-1.076,1.026-1.074,1.331l.293,2.049-.781,2.868a2.556,2.556,0,0,1-.978,1.742,1.856,1.856,0,0,0-.879,1.024l-.586.819a18.009,18.009,0,0,0-.832,1.793,7.707,7.707,0,0,1-1.418,2.305,3.665,3.665,0,0,0-.976,1.946,2.318,2.318,0,0,1-.978,1.639,3.56,3.56,0,0,0-1.123,1.075A2.762,2.762,0,0,1,613.2,339.109Zm-30.347,2.664.391,2.356.2.2H585l.486.206a15.656,15.656,0,0,0,2.924.409,7.026,7.026,0,0,0,4.823-1.588,5.109,5.109,0,0,1,2.875-1.587q1.071,0,1.8-1.537t.927-1.536H600.2l.389-.2a3.515,3.515,0,0,1,2-3.38,6.1,6.1,0,0,0,2.826-2.715,7.481,7.481,0,0,1,1.9-2.561,4.35,4.35,0,0,0,1.462-2.3l.779-1.229a2.257,2.257,0,0,0,.391-1.537l1.851-3.687a19.225,19.225,0,0,0,.585-4,3.765,3.765,0,0,0-2.1-3.38q-2.1-1.23-2.095-4.815a5.758,5.758,0,0,1,2.291-4.353q2.291-2,2.291-2.407,0-.615-.586-.615a12.168,12.168,0,0,0-2.241.819q-.683,1.435-6.919,3.79a15.546,15.546,0,0,0-2.241-1.024q-.586,0-1.169,1.23a5.426,5.426,0,0,1-1.17,1.741h-1.267q-.195,0-1.266,1.331a3.352,3.352,0,0,1-2.728,1.332l-1.169,1.229q.1,1.64-1.949,3.38l-1.073,1.332q-.975,1.23-2.532,2.868l-1.755,4.609a12.079,12.079,0,0,0-1.072,4,3.538,3.538,0,0,1-1.318,1.281,1.967,1.967,0,0,0-1.025,1.69,2.909,2.909,0,0,0,.683,1.024,2.4,2.4,0,0,1,.684,1.23l-.391,1.331-.39,3.79Z" transform="translate(-299.731 -206.101)" style="fill:none;stroke:#000;stroke-miterlimit:10;stroke-width:7px"/><path d="M404.736,308.073l2.051-1.741a2.517,2.517,0,0,0,2.536-2.561q.195-2.355,3.221-4.1l1.172-1.741q1.462-1.536,8-4a7.862,7.862,0,0,0,2.246-1.844.557.557,0,0,1,.39-.2l1.562.409a10.173,10.173,0,0,0,3.269-.717,11.435,11.435,0,0,1,3.856-.717l4.1-.2a4.938,4.938,0,0,1,1.61.615,6.557,6.557,0,0,0,2.977.615,5.24,5.24,0,0,1,3.952,2.048,5.987,5.987,0,0,1,1.806,3.79q0,3.177-3.118,6.453t-4.972,3.688a11.848,11.848,0,0,1-2.534,2.2,7.153,7.153,0,0,0-1.8,1.434q-.927.975-1.511.973a.687.687,0,0,1-.586-.256.69.69,0,0,0-.584-.256q-1.562,0-3.41,4l-1.755-.2a5.34,5.34,0,0,0-2.146,2.458,1.96,1.96,0,0,1-2.045,1.332q-3.607,3.791-4.874,3.79a7.744,7.744,0,0,1-1.366-.41,3.5,3.5,0,0,0-.779,2.151q0,1.23-1.56,1.434l-1.267,1.23-.975-.2-1.949,2.151a5.519,5.519,0,0,0-3.022,1.024q-.2,1.23-.586,3.124t-.39,2.1q0,2.973,5.175,2.971l4.689-.717a6.344,6.344,0,0,0,3.467-1.024,6.346,6.346,0,0,1,3.469-1.025,5.937,5.937,0,0,0,1.758-.41l.976.41a6.664,6.664,0,0,1,2.539-2.765,5.963,5.963,0,0,1,2.931-1.23l.977-.614a2.618,2.618,0,0,1,1.172-1.639l.781-.717a2.152,2.152,0,0,1,1.465-.82h1.367l.391-.2a4.826,4.826,0,0,1,3.271-3.124,3.69,3.69,0,0,0,2.638-1.485,2.392,2.392,0,0,1,1.905-1.229,3.518,3.518,0,0,0,2.3-1.383,12.176,12.176,0,0,1,2.295-2.2,23.03,23.03,0,0,0,1.905-1.537,1.489,1.489,0,0,1,.928-.512q.587,0,.586.922c0,.614.129.922.391.922s.39-.136.39-.41a3.561,3.561,0,0,0-.2-1.024v-.717a2.013,2.013,0,0,1,1.562-2.049l4.4-2.97q.2-2.151,1.124-2.51a4.3,4.3,0,0,0,1.416-.82,1.536,1.536,0,0,1,1.075-.46q1.268,0,1.269,1.536l-.488,2.663.488,2.766a3.064,3.064,0,0,1-.929,1.69,7.476,7.476,0,0,0-1.416,3.278q-.49,2.2-1.271,2.407h-.586a8.336,8.336,0,0,1-2.786,2.305,3.06,3.06,0,0,0-1.613,1.28l-3.322,4q-.979,1.026-1.663,1.844t-1.074.819l-.782-.819c0-.137-.131-.2-.39-.2q-.979,0-1.222,1.229a4.68,4.68,0,0,1-1.027,2.151,10.463,10.463,0,0,0-3.812,2.664l-.586.2h-1.76q-1.269,0-1.759,2a2.965,2.965,0,0,1-2.784,2.3A5.9,5.9,0,0,0,432.6,342.9a2.172,2.172,0,0,1-.88.41,13.431,13.431,0,0,0-2.736,1.639l-8.21,3.073a3.883,3.883,0,0,1-1.271.512l-2.735.41c-.393,0-.783-.272-1.174-.819s-.652-.82-.781-.82l-1.759.615a12.393,12.393,0,0,1-3.715.614,4.188,4.188,0,0,1-2.151-.717,18.292,18.292,0,0,0-1.855-1.024q-2.837,0-4.007-4.609l-1.174.2q-.391,0-2.638-7.272a3.282,3.282,0,0,0-1.855-1.178,1.8,1.8,0,0,1-1.27-2q0-4.61,1.9-6.2a6.163,6.163,0,0,0,2.1-2.407l1.366-5.326a5.379,5.379,0,0,0,.976-2.049l2.244-4.3Q403.369,310.943,404.736,308.073Zm20.653-6.146-1.172.615a23.506,23.506,0,0,0-2.295,1.792,22.474,22.474,0,0,1-3.711,2.561q-1.809.974-3.711,5.07a23.857,23.857,0,0,0-1.9,4.712q0,.615.586.615l3.32-1.537a15.7,15.7,0,0,0,3.467-2.356,46.348,46.348,0,0,1,4.638-3.482l.782-.82a6.432,6.432,0,0,1,1.806-1.485,9.92,9.92,0,0,0,2.393-2.1l.976-.41q1.66-2.766,3.37-3.38t1.709-1.229q0-1.23-1.856-1.229a5.062,5.062,0,0,0-2.344,1.024H429.2a6.933,6.933,0,0,0-2.148,1.229Z" transform="translate(-299.731 -206.101)" style="fill:none;stroke:#000;stroke-miterlimit:10;stroke-width:7px"/><path d="M465.666,325.486v-.717a10.137,10.137,0,0,1,.195-2.253,8.927,8.927,0,0,1-.586-2.971,28.164,28.164,0,0,1,.977-2.868l.879-3.176a16.5,16.5,0,0,1,.781-1.946,12.524,12.524,0,0,1-.586-1.844,5.917,5.917,0,0,1,1.268-3.892,12.882,12.882,0,0,0,2.148-4.3l1.952-6.248,3.22-8.195a11.9,11.9,0,0,1,.926-1.639q.828-1.329,1.367-2.305t1.514-2.817l.976-.2a1.2,1.2,0,0,0,.391-.819,12.918,12.918,0,0,0-.391-1.64l3.418-5.941,2.051-4.4a4.963,4.963,0,0,1,2.148-2.254q1.953-3.787,3.418-4.609a15.292,15.292,0,0,1,2.149-4.2l1.855-.205a9.268,9.268,0,0,1,.977-2.151l.195-2.049q0,.617.488-.358t1.465-3.636l2.637-3.176.781-1.434q.487-.716,1.563-2.765a5.218,5.218,0,0,0,2.441-2.254l2.051-1.741q-.2-1.127,2.344-5.019a12.553,12.553,0,0,0,3.027-1.844l1.367-.41q0-3.583,2.442-4.917l1.172-.819a9.449,9.449,0,0,1,1.757-.819l.684-.206a8.31,8.31,0,0,1,2.734-.409,9.228,9.228,0,0,1,6.543,2.817,8.672,8.672,0,0,1,2.93,6.4,4.427,4.427,0,0,1-1.465,2.97l-.39.82q-1.37,5.634-1.954,5.633a1.925,1.925,0,0,0-1.074.615,20.508,20.508,0,0,1-.39,3.79q-1.758.308-1.758,4.61a8.386,8.386,0,0,1-1.416,2.1,10.622,10.622,0,0,0-1.9,4.1q-.684,2.612-1.464,2.612h-1.075l.293,1.536a4.1,4.1,0,0,1-1.318,2.817,5.821,5.821,0,0,0-1.611,2.92,8.208,8.208,0,0,1-2.344,3.687l-.977,1.639a13.806,13.806,0,0,1-1.562,2.151,9.3,9.3,0,0,0-1.66,3.483l-2.539,4.917q-2.637,5.019-4,4.813a37.263,37.263,0,0,1-1.172,4.61,2.737,2.737,0,0,1-1.367,1.127,3.492,3.492,0,0,0-1.661,1.792,5.726,5.726,0,0,1-1.269,1.895l-1.758,3.79a4.319,4.319,0,0,0-2.246,2.663q-1.563.411-1.953,2.766a6.74,6.74,0,0,0-.977,1.844l-3.418,3.585a6.164,6.164,0,0,0-2.832,4.456q-.2,2.511-2.539,2.51a12.808,12.808,0,0,1-4.883-1.537h-.195a10,10,0,0,1-1.367,3.175l.391,2.766q0,.515-1.563,6.453a5.915,5.915,0,0,1,.781,2.151l-.195,2.254.488,2.765q.489,3.381,2.344,3.381l2.342.409a16.141,16.141,0,0,0,2.44-1.536l3.611-2.049c.129,0,.195.069.195.205a4.3,4.3,0,0,0,1.561.41q.975,0,.976-1.639v-1.331a2.342,2.342,0,0,1,1.415-1.23,3.111,3.111,0,0,0,1.513-.922c.455-.476.814-.717,1.073-.717h.977q1.463,0,1.463-3.585a4.264,4.264,0,0,0,.977-.819h1.17q.78,0,1.707-2a11.727,11.727,0,0,1,1.319-2.408,6.674,6.674,0,0,0,2.44-.614q3.121-5.94,4.782-5.941h.585a5.377,5.377,0,0,0,1.806-2.92,1.965,1.965,0,0,1,.975-1.69,6.65,6.65,0,0,0,1.513-1.024q.683-.615.879-.615,1.463,0,1.464,1.127l-.293,2.868.683,3.073a3.922,3.922,0,0,1-.83,1.588,4.439,4.439,0,0,0-.828,2.612q0,2.971-.977,3.175a2.457,2.457,0,0,0-1.61,1.383,6.188,6.188,0,0,1-2.1,2.151,6.141,6.141,0,0,0-2.244,2.817l-1.66.41-.974.614q-1.173,3.177-2.491,3.893t-3.268,4.3c-.2,0-.293.069-.293.2l-1.561-.2a3.834,3.834,0,0,1-1.758,1.946,2.914,2.914,0,0,0-1.463,1.178,4.473,4.473,0,0,1-2.1,1.485,3.4,3.4,0,0,0-1.9,1.434,1.476,1.476,0,0,1-1.172.922,2.58,2.58,0,0,0-1.463.768,1.876,1.876,0,0,1-1.17.666c-.132,0-.586-.067-1.368-.2h-.389a5.071,5.071,0,0,1-2.733,1.23,3.292,3.292,0,0,0-1.854.409,4.556,4.556,0,0,0-1.806-.614,9.539,9.539,0,0,1-2.782-1.025,12.8,12.8,0,0,1-2.049.41q-1.659,0-4.2-3.431a11.321,11.321,0,0,1-2.537-6.71,12.889,12.889,0,0,0-1.123-1.587,5.234,5.234,0,0,1-1.123-3.227V331.53l.195-1.23v-1.946l.2-.614q1.464-.2,1.465-.41Zm19.816-27.144,2.051-1.23a9.734,9.734,0,0,1,2.539-3.943q2.146-2.305,3.028-2.305h.781a3.78,3.78,0,0,1,.293-1.434,5.27,5.27,0,0,0,.293-1.946q0-.615,2.637-3.38l.781-1.844q.879-2.662,4.394-4.4,1.366-2.97,2.051-2.97l.781-.2a6.176,6.176,0,0,1,1.563-2.766l.39-.614v-1.639a7.541,7.541,0,0,1,1.319-1.69,11.525,11.525,0,0,0,1.9-2.766,4.825,4.825,0,0,1,1.611-2,3.976,3.976,0,0,0,1.416-2.561l1.563-.2a4.86,4.86,0,0,1,.2-1.741l.2-1.025q.487-1.228,3.418-6.453l1.562-3.79a2.408,2.408,0,0,1,.83-1.485,3.5,3.5,0,0,0,.83-2.51l.781-3.38q0-2.355-.781-2.356a7.61,7.61,0,0,1-1.806,1.025q-.831.306-1.612,3.687-2.929.719-3.369,2.919a6.231,6.231,0,0,1-2.392,3.739l-.684,1.229a4.169,4.169,0,0,1-1.856,2.356,11.448,11.448,0,0,0-3.125,4.2q-4.884,7.068-5.371,7.58l-.976,1.229-1.465-.2a18.255,18.255,0,0,1,.391,1.844,1.642,1.642,0,0,1-.586,1.178,3.535,3.535,0,0,0-.879,1.383,6.8,6.8,0,0,1-1.172,1.9,10.5,10.5,0,0,0-1.611,3.482,6.255,6.255,0,0,1-1.319,2.817l-1.367-.2q-1.27.822-1.27,1.639l.293,1.434a1.563,1.563,0,0,1-.537.973,5.767,5.767,0,0,0-1.025,2.2,26.063,26.063,0,0,1-2.441,4.968,32.142,32.142,0,0,0-3.077,7.067q-1.123,3.741-2.2,4.763a.767.767,0,0,0,.586.205Q484.309,301.107,485.482,298.342Z" transform="translate(-299.731 -206.101)" style="fill:none;stroke:#000;stroke-miterlimit:10;stroke-width:7px"/><path d="M306.272,312.477l.785-1.126q2.55-.615,3.236-2.049.293-.716,4.9-5.326t5.1-4.917a42.187,42.187,0,0,0,3.8-8.912q1.168-.615,1.168-1.434l.779-1.639.876-.2.389-.41v-.921q0-1.843,3.8-8.6,3.8-8.3,4.1-9.168a20.266,20.266,0,0,1,1.172-2.561q.879-1.69,2.686-6.5a42.776,42.776,0,0,1,5.615-10.039,5.8,5.8,0,0,0,1.172-2.305,14.836,14.836,0,0,1,2.441-4.148l1.172-2.151q.587-1.023,2.051-3.585a29.741,29.741,0,0,1,2.685-4.046,11.424,11.424,0,0,0,1.856-3.124,5.581,5.581,0,0,1,1.514-2.356,7.89,7.89,0,0,0,1.806-2.613,3.037,3.037,0,0,1,2.881-1.9,5.784,5.784,0,0,1,5.518,3.278,12.82,12.82,0,0,1,1.709,5.737q0,.307-1.172,4.4l-1.465,9.219q-1.954,1.026-1.953,2.356,0,5.43-4,11.268a5.963,5.963,0,0,0-.635,2.663,5.858,5.858,0,0,1-1.709,3.687,12.563,12.563,0,0,0-2.637,4.815l-9.082,13.623-.781.82a5.723,5.723,0,0,0-1.367,1.741l-1.563-.512q-2.636,0-2.636,1.741a4.889,4.889,0,0,0,.39,1.639v.2q0,.1-7.226,10.755a23.087,23.087,0,0,0-1.367,4l-1.368,3.073a20.455,20.455,0,0,0-2.88,5.787,13.548,13.548,0,0,1-2.2,4.559q-1.954,4.61-1.953,4.814,0,.615.586.615t2.783-3.074a18.837,18.837,0,0,1,3.614-4.1,8.219,8.219,0,0,0,2.394-2.868l.978-.717a14.46,14.46,0,0,0,1.663-1.229l.978.2a2.579,2.579,0,0,0,.978-1.434,2.628,2.628,0,0,1,.588-1.23q2.541-.306,3.178-1.945t1.516-1.64q.783,0,2.054-1.895a9.307,9.307,0,0,1,3.571-3.072,20.127,20.127,0,0,0,3.424-2.1,17.994,17.994,0,0,1,4.549-2.2,16.927,16.927,0,0,1,4.6-1.28h.586l.783.2,1.468-.2a13.468,13.468,0,0,1,6.842,2,5.811,5.811,0,0,1,2.931,6.2l-.781,6.352-1.074,5.019a48.843,48.843,0,0,1-1.563,5.428,31.853,31.853,0,0,0-1.367,4.815l-.391,1.946.39,2.663-.194,2.151c0,.684.323,1.024.971,1.024q.39,0,2.143-1.843,1.068.205,2.043-1.229a17.63,17.63,0,0,1,2.629-2.971q0-.408,1.265-.768a10.392,10.392,0,0,0,3.5-2.407q.39-.923,3.8-3.944a33.67,33.67,0,0,1,6.521-4.661l.585-.819a4.515,4.515,0,0,1,3.016-1.741q1.363,0,1.363,1.536a5.413,5.413,0,0,1-.488,2.151,10.279,10.279,0,0,0-.682,2.92,16.634,16.634,0,0,1-1.95,5.172l-.391,1.024q-.683,1.743-1.657,2.049a4.86,4.86,0,0,0-2.1,1.69q-1.121,1.383-4.632,2.612-1.562,3.073-2.438,3.073l-1.755-.819a4.835,4.835,0,0,0-2.048,3.585,24.219,24.219,0,0,0-3.023,2.97l-1.951-.205q-.781,0-.78,2.254,0,.205-2,1.383a21.942,21.942,0,0,0-3.072,2.1q-1.072.921-4.583.922a2.209,2.209,0,0,1-1.171-.717,6.46,6.46,0,0,0-2.292-1.23,3.357,3.357,0,0,1-2.1-2.407,12.618,12.618,0,0,0-1.268-2.97,3.537,3.537,0,0,1-.684-1.691l.2-2.048-.488-2.151.878-1.434a6.576,6.576,0,0,1-.586-1.946l.977-6.249a69.4,69.4,0,0,1,1.758-8.809,2.232,2.232,0,0,0,.195-1.229l-.195-2.561.195-1.434q0-1.536-.976-1.639t-1.172-.512a7.252,7.252,0,0,0-1.467-.615q-.783,0-1.37,1.281a8.318,8.318,0,0,1-1.563,2.3l-2.444-.409v.2q0,.82-2.64,3.175a8.05,8.05,0,0,0-4.2,2.663q-.781,0-2.688,1.588a12.155,12.155,0,0,1-2.492,1.793l-.783,1.639-1.564.511a4.1,4.1,0,0,1-3.226,2.664l-.978,1.946a3.213,3.213,0,0,0-2.835,2.2q-.783,2-1.172,2a1.529,1.529,0,0,1-.636-.256,1.671,1.671,0,0,0-.831-.256q-2.152,0-2.346,3.38,0,.411-4.008,4.814a54.255,54.255,0,0,1-4.3,4.507q-.293.1-1.124,2.1a6.375,6.375,0,0,1-2.3,2.971,25.965,25.965,0,0,0-2.2,1.587,2.116,2.116,0,0,1-1.125.615q-2.052,0-3.323-3.073t-1.271-3.176l.587-2.15-.195-1.844q0-.1,1.221-4.149a23.641,23.641,0,0,1,2.786-6.351q1.563-2.3,2.445-7.529-4.4,3.074-5.28,3.074-1.954,0-1.955-2.663A13.94,13.94,0,0,1,306.272,312.477Z" transform="translate(-299.731 -206.101)" style="fill:none;stroke:#000;stroke-miterlimit:10;stroke-width:7px"/></svg>