<svg id="Layer_1" data-name="Layer 1" xmlns="http://www.w3.org/2000/svg" viewBox="0 0 299.768 158.398"><title>text2</title><g id="hgrp"><polyline id="hpath" points="48 2.398 31 41.398 6 96.398 6 127.398 27 103.398 48 96.398 48 139.398 85 94.398 93 124.398 110 103.398 116 94.398 99 94.398 75 118.398 93 133.398 124 118.398 163 85.398 175 80.398 203 50.398 203 17.398 180 42.398 156 123.398 170 131.398 199 112.398 214 103.398 236 80.398 256 42.398 256 23.398 233 46.398 209 80.398 199 122.398 223 131.398 247 114.398 256 139.398 278 133.398 293 112.398 286 94.398 256 103.398 250 130.398 273 152.398 278 152.398" style="fill:none;stroke:#000;stroke-miterlimit:10;stroke-width:12px"/></g></svg>